# xmcd CD database file
#
# Track frame offsets:
#	150
#	20276
#	40016
#	58424
#	75287
#	98139
#	118019
#	137948
#	159641
#	179604
#	198083
#	220764
#	239691
#	259989
#	280672
#	303392
#
# Disc length: 4349 seconds
#
# Revision: 0
# Processed by: cddbd v1.5.2PL0 Copyright (c) Steve Scherf et al.
# Submitted via: CD2WAV32(JP) R3.22
#
DISCID=e110fb10
DTITLE=和田青児 - ぼちぼち／上野発
DYEAR=2009
DGENRE=Country
TTITLE0=ぼちぼち
TTITLE1=上野発
TTITLE2=別れの海峡
TTITLE3=青春は終わらない
TTITLE4=花よ鳥よ
TTITLE5=夢さすらい
TTITLE6=人生列車
TTITLE7=望郷歌
TTITLE8=笑顔
TTITLE9=雪の花
TTITLE10=忘れ風鈴
TTITLE11=はぐれ雲どこへ
TTITLE12=リンゴのふる里へ
TTITLE13=演歌海道
TTITLE14=おとこの海道
TTITLE15=エンジンのない舟
EXTD=
EXTT0=
EXTT1=
EXTT2=
EXTT3=
EXTT4=
EXTT5=
EXTT6=
EXTT7=
EXTT8=
EXTT9=
EXTT10=
EXTT11=
EXTT12=
EXTT13=
EXTT14=
EXTT15=
PLAYORDER=
